HIERARCHY
ROOT Root
{
  OFFSET 0.0 0.0 0.0
  CHANNELS 6 Xposition Yposition Zposition Zrotation Yrotation Xrotation
  JOINT Hips
  {
    OFFSET 0.0 100.0 0.0
    CHANNELS 6 Xposition Yposition Zposition Zrotation Yrotation Xrotation
    JOINT Spine1
    {
      OFFSET 5.003913 -0.037094 -0.013727
      CHANNELS 3 Zrotation Yrotation Xrotation
      JOINT Spine2
      {
        OFFSET 7.125363 -1e-06 0.0
        CHANNELS 3 Zrotation Yrotation Xrotation
        JOINT Chest
        {
          OFFSET 7.594027 1e-06 0.0
          CHANNELS 3 Zrotation Yrotation Xrotation
          JOINT Neck1
          {
            OFFSET 26.313086 -0.460272 -0.181672
            CHANNELS 3 Zrotation Yrotation Xrotation
            JOINT Neck2
            {
              OFFSET 8.045911 0.0 0.0
              CHANNELS 3 Zrotation Yrotation Xrotation
              JOINT Head
              {
                OFFSET 6.432774 0.0 0.0
                CHANNELS 3 Zrotation Yrotation Xrotation
                JOINT HeadEnd
                {
                  OFFSET 16.169773 0.06451 0.00362
                  CHANNELS 3 Zrotation Yrotation Xrotation
                }
                JOINT Jaw
                {
                  OFFSET 0.108741 3.12938 0.002639
                  CHANNELS 3 Zrotation Yrotation Xrotation
                }
                JOINT LeftEye
                {
                  OFFSET 4.45173 8.166359 3.206392
                  CHANNELS 3 Zrotation Yrotation Xrotation
                }
                JOINT RightEye
                {
                  OFFSET 4.436895 8.135758 -3.222429
                  CHANNELS 3 Zrotation Yrotation Xrotation
                }
              }
            }
          }
          JOINT LeftShoulder
          {
            OFFSET 23.218927 5.195579 1.621656
            CHANNELS 3 Zrotation Yrotation Xrotation
            JOINT LeftArm
            {
              OFFSET 15.902118 2e-06 -2e-06
              CHANNELS 3 Zrotation Yrotation Xrotation
              JOINT LeftForeArm
              {
                OFFSET 28.739307 0.0 -1e-06
                CHANNELS 3 Zrotation Yrotation Xrotation
                JOINT LeftHand
                {
                  OFFSET 27.093981 -4e-06 0.0
                  CHANNELS 3 Zrotation Yrotation Xrotation
                  JOINT LeftHandThumb1
                  {
                    OFFSET 2.276781 3.380274 0.83384
                    CHANNELS 3 Zrotation Yrotation Xrotation
                    JOINT LeftHandThumb2
                    {
                      OFFSET 4.705309 -1e-06 -1e-06
                      CHANNELS 3 Zrotation Yrotation Xrotation
                      JOINT LeftHandThumb3
                      {
                        OFFSET 2.798515 0.0 3e-06
                        CHANNELS 3 Zrotation Yrotation Xrotation
                        JOINT LeftHandThumbEnd
                        {
                          OFFSET 3.180793 4e-06 -4e-06
                          CHANNELS 3 Zrotation Yrotation Xrotation
                        }
                      }
                    }
                  }
                  JOINT LeftHandIndex1
                  {
                    OFFSET 3.247786 2.352677 0.137192
                    CHANNELS 3 Zrotation Yrotation Xrotation
                    JOINT LeftHandIndex2
                    {
                      OFFSET 6.367095 1e-06 0.0
                      CHANNELS 3 Zrotation Yrotation Xrotation
                      JOINT LeftHandIndex3
                      {
                        OFFSET 3.662364 0.0 0.0
                        CHANNELS 3 Zrotation Yrotation Xrotation
                        JOINT LeftHandIndex4
                        {
                          OFFSET 2.329242 4e-06 -4e-06
                          CHANNELS 3 Zrotation Yrotation Xrotation
                          JOINT LeftHandIndexEnd
                          {
                            OFFSET 2.767823 1e-06 0.0
                            CHANNELS 3 Zrotation Yrotation Xrotation
                          }
                        }
                      }
                    }
                  }
                  JOINT LeftHandMiddle1
                  {
                    OFFSET 3.163612 0.945023 -0.406112
                    CHANNELS 3 Zrotation Yrotation Xrotation
                    JOINT LeftHandMiddle2
                    {
                      OFFSET 6.276789 3e-06 0.0
                      CHANNELS 3 Zrotation Yrotation Xrotation
                      JOINT LeftHandMiddle3
                      {
                        OFFSET 4.35652 -1e-06 4e-06
                        CHANNELS 3 Zrotation Yrotation Xrotation
                        JOINT LeftHandMiddle4
                        {
                          OFFSET 2.996877 0.0 8e-06
                          CHANNELS 3 Zrotation Yrotation Xrotation
                          JOINT LeftHandMiddleEnd
                          {
                            OFFSET 2.323256 3e-06 -4e-06
                            CHANNELS 3 Zrotation Yrotation Xrotation
                          }
                        }
                      }
                    }
                  }
                  JOINT LeftHandRing1
                  {
                    OFFSET 2.882606 -0.309162 0.107445
                    CHANNELS 3 Zrotation Yrotation Xrotation
                    JOINT LeftHandRing2
                    {
                      OFFSET 6.033198 0.0 4e-06
                      CHANNELS 3 Zrotation Yrotation Xrotation
                      JOINT LeftHandRing3
                      {
                        OFFSET 4.350578 3e-06 0.0
                        CHANNELS 3 Zrotation Yrotation Xrotation
                        JOINT LeftHandRing4
                        {
                          OFFSET 2.651321 2e-06 -7e-06
                          CHANNELS 3 Zrotation Yrotation Xrotation
                          JOINT LeftHandRingEnd
                          {
                            OFFSET 1.937663 1e-06 -4e-06
                            CHANNELS 3 Zrotation Yrotation Xrotation
                          }
                        }
                      }
                    }
                  }
                  JOINT LeftHandPinky1
                  {
                    OFFSET 2.865315 -1.525436 0.575687
                    CHANNELS 3 Zrotation Yrotation Xrotation
                    JOINT LeftHandPinky2
                    {
                      OFFSET 5.54936 1e-06 -8e-06
                      CHANNELS 3 Zrotation Yrotation Xrotation
                      JOINT LeftHandPinky3
                      {
                        OFFSET 3.070974 0.0 -4e-06
                        CHANNELS 3 Zrotation Yrotation Xrotation
                        JOINT LeftHandPinky4
                        {
                          OFFSET 1.549672 1e-06 0.0
                          CHANNELS 3 Zrotation Yrotation Xrotation
                          JOINT LeftHandPinkyEnd
                          {
                            OFFSET 1.952123 0.0 0.0
                            CHANNELS 3 Zrotation Yrotation Xrotation
                          }
                        }
                      }
                    }
                  }
                }
              }
            }
          }
          JOINT RightShoulder
          {
            OFFSET 23.161716 5.296122 -1.380114
            CHANNELS 3 Zrotation Yrotation Xrotation
            JOINT RightArm
            {
              OFFSET -16.027195 -2e-06 1.1e-05
              CHANNELS 3 Zrotation Yrotation Xrotation
              JOINT RightForeArm
              {
                OFFSET -28.736639 4e-06 2e-06
                CHANNELS 3 Zrotation Yrotation Xrotation
                JOINT RightHand
                {
                  OFFSET -27.133619 6e-06 0.0
                  CHANNELS 3 Zrotation Yrotation Xrotation
                  JOINT RightHandThumb1
                  {
                    OFFSET -2.274328 -3.351035 -0.83067
                    CHANNELS 3 Zrotation Yrotation Xrotation
                    JOINT RightHandThumb2
                    {
                      OFFSET -4.703594 -3e-06 2e-06
                      CHANNELS 3 Zrotation Yrotation Xrotation
                      JOINT RightHandThumb3
                      {
                        OFFSET -2.794935 -4e-06 -3e-06
                        CHANNELS 3 Zrotation Yrotation Xrotation
                        JOINT RightHandThumbEnd
                        {
                          OFFSET -3.183852 4e-06 1e-06
                          CHANNELS 3 Zrotation Yrotation Xrotation
                        }
                      }
                    }
                  }
                  JOINT RightHandIndex1
                  {
                    OFFSET -3.253496 -2.33755 -0.127667
                    CHANNELS 3 Zrotation Yrotation Xrotation
                    JOINT RightHandIndex2
                    {
                      OFFSET -6.344434 0.0 0.0
                      CHANNELS 3 Zrotation Yrotation Xrotation
                      JOINT RightHandIndex3
                      {
                        OFFSET -3.654871 0.0 -8e-06
                        CHANNELS 3 Zrotation Yrotation Xrotation
                        JOINT RightHandIndex4
                        {
                          OFFSET -2.327586 -1e-06 0.0
                          CHANNELS 3 Zrotation Yrotation Xrotation
                          JOINT RightHandIndexEnd
                          {
                            OFFSET -2.770001 3e-06 8e-06
                            CHANNELS 3 Zrotation Yrotation Xrotation
                          }
                        }
                      }
                    }
                  }
                  JOINT RightHandMiddle1
                  {
                    OFFSET -3.168223 -0.944764 0.411762
                    CHANNELS 3 Zrotation Yrotation Xrotation
                    JOINT RightHandMiddle2
                    {
                      OFFSET -6.266691 -1e-06 -4e-06
                      CHANNELS 3 Zrotation Yrotation Xrotation
                      JOINT RightHandMiddle3
                      {
                        OFFSET -4.348901 0.0 0.0
                        CHANNELS 3 Zrotation Yrotation Xrotation
                        JOINT RightHandMiddle4
                        {
                          OFFSET -3.00024 2e-06 -4e-06
                          CHANNELS 3 Zrotation Yrotation Xrotation
                          JOINT RightHandMiddleEnd
                          {
                            OFFSET -2.321477 -4e-06 -4e-06
                            CHANNELS 3 Zrotation Yrotation Xrotation
                          }
                        }
                      }
                    }
                  }
                  JOINT RightHandRing1
                  {
                    OFFSET -2.885654 0.293261 -0.119232
                    CHANNELS 3 Zrotation Yrotation Xrotation
                    JOINT RightHandRing2
                    {
                      OFFSET -6.032835 -1e-06 -4e-06
                      CHANNELS 3 Zrotation Yrotation Xrotation
                      JOINT RightHandRing3
                      {
                        OFFSET -4.33881 0.0 -4e-06
                        CHANNELS 3 Zrotation Yrotation Xrotation
                        JOINT RightHandRing4
                        {
                          OFFSET -2.654903 -4e-06 -4e-06
                          CHANNELS 3 Zrotation Yrotation Xrotation
                          JOINT RightHandRingEnd
                          {
                            OFFSET -1.935122 0.0 4e-06
                            CHANNELS 3 Zrotation Yrotation Xrotation
                          }
                        }
                      }
                    }
                  }
                  JOINT RightHandPinky1
                  {
                    OFFSET -2.866241 1.503904 -0.60527
                    CHANNELS 3 Zrotation Yrotation Xrotation
                    JOINT RightHandPinky2
                    {
                      OFFSET -5.553177 -2e-06 0.0
                      CHANNELS 3 Zrotation Yrotation Xrotation
                      JOINT RightHandPinky3
                      {
                        OFFSET -3.062664 -1e-06 -4e-06
                        CHANNELS 3 Zrotation Yrotation Xrotation
                        JOINT RightHandPinky4
                        {
                          OFFSET -1.546529 2e-06 4e-06
                          CHANNELS 3 Zrotation Yrotation Xrotation
                          JOINT RightHandPinkyEnd
                          {
                            OFFSET -1.952341 0.0 -4e-06
                            CHANNELS 3 Zrotation Yrotation Xrotation
                          }
                        }
                      }
                    }
                  }
                }
              }
            }
          }
        }
      }
    }
    JOINT LeftLeg
    {
      OFFSET -8.443107 2.567604 10.043214
      CHANNELS 3 Zrotation Yrotation Xrotation
      JOINT LeftShin
      {
        OFFSET 43.229198 1e-06 -1e-06
        CHANNELS 3 Zrotation Yrotation Xrotation
        JOINT LeftFoot
        {
          OFFSET 42.298611 1e-06 1e-06
          CHANNELS 3 Zrotation Yrotation Xrotation
          JOINT LeftToeBase
          {
            OFFSET 14.165858 1e-06 0.0
            CHANNELS 3 Zrotation Yrotation Xrotation
            JOINT LeftToeEnd
            {
              OFFSET 6.7141 -0.234461 0.0
              CHANNELS 3 Zrotation Yrotation Xrotation
            }
          }
        }
      }
    }
    JOINT RightLeg
    {
      OFFSET -8.303923 2.592729 -10.047278
      CHANNELS 3 Zrotation Yrotation Xrotation
      JOINT RightShin
      {
        OFFSET -43.369682 0.0 1e-06
        CHANNELS 3 Zrotation Yrotation Xrotation
        JOINT RightFoot
        {
          OFFSET -42.260784 4e-06 2e-06
          CHANNELS 3 Zrotation Yrotation Xrotation
          JOINT RightToeBase
          {
            OFFSET -14.222245 -2e-06 -1e-06
            CHANNELS 3 Zrotation Yrotation Xrotation
            JOINT RightToeEnd
            {
              OFFSET -6.660062 0.232574 -2e-06
              CHANNELS 3 Zrotation Yrotation Xrotation
            }
          }
        }
      }
    }
  }
}
MOTION
Frames: 4
Frame Time: 0.03333333333333333
0.0 0.0 0.0 0.0 -0.0 0.0 -1.492736 99.57296 5.899909 90.355598 3.833782 90.026711 -7.048978 0.383348 -0.166568 -13.315889 -0.569097 -0.235874 20.607264 2.259161 -2.22768 18.819942 5.648455 2.026652 -2.662649 -0.535458 0.066077 -27.682135 2.563977 -3.937134 7e-06 -0.0 0.0 0.022968 -0.014863 0.166483 0.041204 0.006049 0.181803 -0.007562 -0.026384 0.151115 -135.565811 -75.010857 151.167542 36.763714 -46.17197 -10.696302 90.45575 -0.570363 -0.298334 9.490754 12.152233 -35.130203 17.636641 -26.322733 52.411179 -19.466661 -14.395598 29.410385 -2e-06 -8.774822 -2e-06 15.605181 -18.793951 6.411231 -0.609778 -1.795654 -3.889326 -4.807089 -11.046811 -2.93785 6e-06 -20.976021 0.0 -5.019972 -25.03356 -4.031878 5e-06 -0.0 -0.0 -10.634535 -5.686969 -3.565587 10.573276 -17.922949 -3.113898 2e-06 -13.821209 3e-06 -0.501779 -31.181501 -4.027013 -11.43117 -59.136879 7.449815 -13.982714 -7.150198 -2.875041 13.772729 -8.401488 -3.21824 0.347733 -34.211552 0.771657 -0.96303 -17.73337 2.621021 -1e-06 -0.0 -0.0 -17.346416 -20.095217 -4.20178 21.757559 -1.638378 3.866428 1e-06 -6.338821 3e-06 -1.69759 -22.591742 -6.194004 -0.0 -3e-06 -2e-06 26.555599 -74.412445 169.302673 44.208252 -42.736996 -12.90286 103.108963 1.2262 0.561413 18.935764 3.281803 -15.824749 22.182108 -20.375891 49.933315 -16.701811 -16.743521 28.476526 -1e-06 -12.6906 -3e-06 15.816826 -17.403505 2.991367 -0.105922 -1.513854 -4.275881 -5.039042 -5.612873 -2.953557 7e-06 -11.02052 -2e-06 -6.111296 -15.895334 -3.84047 -1e-06 -0.0 0.0 -10.283367 -5.680286 -4.341837 11.028293 -11.302405 -2.372634 -1.384268 -14.238579 -6.32012 -0.625436 -26.924187 -3.8276 -4.952799 -50.106171 -2.596214 -13.708524 -7.363477 -3.720941 18.141146 -14.052739 -3.242675 6e-06 -18.78727 -4e-06 -0.429712 -8.456043 2.555505 -0.0 -1e-06 -1e-06 -15.923532 -20.094479 -5.473586 30.419201 -7.190824 1.735928 3e-06 -8.162925 -1e-06 -1.861899 -22.861467 -6.167941 1e-06 -3e-06 -2e-06 -174.798325 -5.610418 -10.082067 9.898282 -0.070323 0.044618 -79.921875 4.902269 -6.77936 -5.966005 1.531291 2.093974 -0.999999 0.0 0.0 4.547617 -5.042281 -13.65795 13.080121 0.055582 0.102129 -81.737213 -0.558157 -5.270113 -5.664734 0.64189 1.67489 -1.000003 1e-06 0.0 
0.0 0.0 0.0 0.0 -0.0 0.0 -1.502565 99.57338 6.021348 90.363441 3.863252 90.133194 -7.077311 0.328311 -0.209501 -13.292225 -0.540822 -0.212879 20.654373 2.207783 -2.257763 18.758696 5.705609 2.028872 -2.678759 -0.510299 0.107604 -27.717024 2.52353 -4.021749 6e-06 -0.0 -0.0 0.023055 -0.018102 0.188971 0.051699 -0.002071 0.205302 0.000813 -0.024451 0.171062 -135.090225 -75.220795 150.598221 36.947315 -46.223236 -11.063773 91.25692 -0.572067 -0.416095 9.365432 12.470182 -35.511887 17.636627 -26.322733 52.411182 -19.466656 -14.3956 29.410385 -1e-06 -8.77482 -2e-06 15.717093 -18.751419 6.433024 -0.609777 -1.795652 -3.889327 -4.807088 -11.046807 -2.937849 4e-06 -20.976015 1e-06 -5.01997 -25.033552 -4.03188 5e-06 -0.0 0.0 -10.634533 -5.686966 -3.565586 10.573272 -17.922955 -3.113901 2e-06 -13.821206 2e-06 -0.501778 -31.181501 -4.027012 -11.512206 -59.08268 7.504732 -13.982714 -7.150195 -2.875041 13.772728 -8.401489 -3.21824 0.347731 -34.211555 0.771659 -0.963028 -17.73337 2.621021 -2e-06 0.0 1e-06 -17.346415 -20.095213 -4.201781 21.757557 -1.638371 3.866426 1e-06 -6.338823 2e-06 -1.697591 -22.591742 -6.194003 0.0 -4e-06 -2e-06 27.033163 -74.479118 168.890656 43.839981 -42.953098 -12.822141 103.516129 1.157823 0.467261 18.818975 3.083403 -16.916498 22.182114 -20.375895 49.933327 -16.701809 -16.74353 28.476528 -1e-06 -12.690605 -2e-06 15.788092 -17.445408 2.921304 -0.105917 -1.513855 -4.275883 -5.039045 -5.612871 -2.953556 7e-06 -11.020523 -2e-06 -6.111298 -15.895332 -3.84047 0.0 -0.0 -0.0 -10.283369 -5.680288 -4.341838 11.028296 -11.302404 -2.372632 -1.384273 -14.238581 -6.32012 -0.625439 -26.924187 -3.827599 -4.781001 -49.831753 -2.746169 -13.708528 -7.363476 -3.720937 18.14115 -14.052739 -3.242676 5e-06 -18.787271 -3e-06 -0.429712 -8.456043 2.555502 -0.0 -0.0 -0.0 -15.923536 -20.094482 -5.473584 30.41921 -7.190826 1.735927 2e-06 -8.162926 -0.0 -1.861903 -22.861471 -6.167941 -0.0 -3e-06 0.0 -174.582489 -5.592544 -10.031156 9.647923 -0.064188 0.073939 -79.807533 5.001327 -6.870551 -5.965305 1.54053 2.101574 -0.999999 -0.0 -0.0 4.811022 -5.001019 -13.74462 12.811407 0.048238 0.097866 -81.669991 -0.556335 -5.337812 -5.612412 0.636798 1.676044 -1.000002 0.0 0.0 
0.0 0.0 0.0 0.0 -0.0 0.0 -1.487826 99.568504 6.085675 90.383224 3.873281 90.233948 -7.097564 0.276982 -0.216235 -13.28243 -0.551491 -0.216238 20.727028 2.144369 -2.266054 18.705711 5.646613 2.056249 -2.717487 -0.499974 0.066627 -27.722723 2.424775 -4.084291 7e-06 -0.0 -0.0 0.021283 -0.019403 0.200969 0.038131 -0.008993 0.216694 -0.011039 -0.020435 0.18243 -134.723495 -75.375351 150.201874 37.166309 -46.229061 -11.424172 92.077377 -0.60762 -0.469905 9.274947 12.730016 -35.865818 17.636635 -26.322729 52.411198 -19.466663 -14.395597 29.410389 -2e-06 -8.774821 -2e-06 15.831904 -18.726065 6.407266 -0.609777 -1.795654 -3.889328 -4.807088 -11.046816 -2.937852 3e-06 -20.976023 -1e-06 -5.019972 -25.033564 -4.031882 5e-06 -0.0 -0.0 -10.634535 -5.686971 -3.565587 10.573274 -17.922958 -3.113901 2e-06 -13.821216 1e-06 -0.501777 -31.181511 -4.027018 -11.539693 -59.104229 7.497987 -13.982714 -7.1502 -2.875042 13.772731 -8.401495 -3.218241 0.347734 -34.211559 0.771653 -0.963028 -17.733372 2.621019 -2e-06 -0.0 1e-06 -17.34642 -20.095224 -4.201783 21.757561 -1.638373 3.86643 1e-06 -6.338824 2e-06 -1.697589 -22.591755 -6.194009 -2e-06 -4e-06 -2e-06 27.36689 -74.561935 168.635773 43.341911 -43.209316 -12.762578 103.998932 1.105372 0.426257 18.601074 3.200337 -17.884985 22.182119 -20.375895 49.933319 -16.701811 -16.743525 28.476534 -2e-06 -12.690601 -2e-06 15.734735 -17.439753 2.87307 -0.10592 -1.513853 -4.27588 -5.039043 -5.612872 -2.953557 6e-06 -11.020525 -2e-06 -6.111296 -15.895334 -3.840472 -2e-06 1e-06 -1e-06 -10.283368 -5.680286 -4.341838 11.028294 -11.302404 -2.372634 -1.384272 -14.238583 -6.320121 -0.625439 -26.924191 -3.827602 -4.699861 -49.692253 -2.827252 -13.708524 -7.363475 -3.72094 18.141148 -14.052739 -3.242672 7e-06 -18.78727 -3e-06 -0.429712 -8.456043 2.555508 -0.0 -0.0 -1e-06 -15.923536 -20.094482 -5.473587 30.41921 -7.190826 1.735927 3e-06 -8.162927 -1e-06 -1.861903 -22.861469 -6.16794 1e-06 -3e-06 0.0 -174.53746 -5.572232 -10.013871 9.623147 -0.060885 0.090255 -79.86377 5.057094 -6.841465 -5.958264 1.54075 2.105423 -0.999999 0.0 0.0 4.917774 -5.015324 -13.805515 12.743719 0.048848 0.092725 -81.639404 -0.542371 -5.395282 -5.552674 0.634527 1.675464 -1.000003 -0.0 -0.0 
0.0 0.0 0.0 0.0 -0.0 0.0 -1.460599 99.558998 6.100884 90.407059 3.857211 90.311043 -7.091068 0.211221 -0.20306 -13.286213 -0.559754 -0.206359 20.785246 2.0646 -2.267537 18.700081 5.458465 2.068073 -2.736356 -0.494729 0.023402 -27.746004 2.317315 -4.123959 7e-06 0.0 -0.0 0.01939 -0.015456 0.203621 0.025738 -0.008992 0.218723 -0.020392 -0.01313 0.184772 -134.593903 -75.443001 150.056702 37.38868 -46.172924 -11.725368 92.885147 -0.697724 -0.485294 9.21194 13.016608 -35.949356 17.636625 -26.322729 52.411182 -19.46666 -14.395594 29.410385 -1e-06 -8.774819 -2e-06 15.909717 -18.656321 6.373896 -0.609776 -1.795657 -3.889326 -4.807089 -11.046807 -2.93785 5e-06 -20.976015 -1e-06 -5.019969 -25.033554 -4.031879 4e-06 -0.0 0.0 -10.634533 -5.68697 -3.565586 10.573272 -17.922947 -3.1139 3e-06 -13.821206 0.0 -0.501777 -31.181498 -4.027016 -11.586552 -59.15752 7.531534 -13.982712 -7.150199 -2.875041 13.772727 -8.401489 -3.21824 0.347731 -34.211544 0.771656 -0.963028 -17.733366 2.62102 -2e-06 -0.0 1e-06 -17.346415 -20.095213 -4.201782 21.757555 -1.638374 3.866428 1e-06 -6.338821 2e-06 -1.697589 -22.591742 -6.194005 -1e-06 -3e-06 -2e-06 27.677984 -74.657028 168.417038 42.725723 -43.512234 -12.64558 104.488853 1.120387 0.471441 18.41663 3.504143 -18.480932 22.182119 -20.3759 49.933323 -16.701813 -16.74353 28.476532 -1e-06 -12.690607 -1e-06 15.687107 -17.434801 2.842468 -0.105918 -1.513854 -4.275882 -5.039042 -5.612871 -2.953556 5e-06 -11.020523 -0.0 -6.111299 -15.895334 -3.840468 -1e-06 1e-06 -0.0 -10.283371 -5.680286 -4.341839 11.028296 -11.302403 -2.372634 -1.384271 -14.23858 -6.32012 -0.625441 -26.924187 -3.827597 -4.685263 -49.649204 -2.894674 -13.708528 -7.363475 -3.720939 18.141153 -14.052739 -3.242675 6e-06 -18.787271 -1e-06 -0.429713 -8.456044 2.555505 -0.0 -0.0 -0.0 -15.923539 -20.094481 -5.473583 30.419218 -7.190826 1.735926 4e-06 -8.162925 0.0 -1.861904 -22.861467 -6.16794 1e-06 -3e-06 0.0 -174.651169 -5.559686 -10.012772 9.802712 -0.05621 0.094463 -79.967117 5.085955 -6.789296 -5.984941 1.541189 2.104655 -0.999998 0.0 0.0 4.866521 -5.063957 -13.823881 12.865887 0.047572 0.083722 -81.679504 -0.524894 -5.440234 -5.529218 0.625335 1.671946 -1.000001 1e-06 -0.0 
